<svg xmlns="http://www.w3.org/2000/svg" width="192" height="192" viewBox="0 0 192 192" fill="none"><rect width="192" height="192" rx="42" fill="#0F1720"/><rect x="28" y="28" width="136" height="136" rx="30" fill="#34C759"/><path d="M60 52h56c12.15 0 22 9.85 22 22v78H74c-12.15 0-22-9.85-22-22V60a8 8 0 0 1 8-8Z" fill="#FFFFFF"/><path d="M74 52h44c12.15 0 22 9.85 22 22v68H80c-9.94 0-18-8.06-18-18V64c0-6.63 5.37-12 12-12Z" fill="#ECFFF1"/><path d="M78 80h44" stroke="#0F1720" stroke-width="8" stroke-linecap="round"/><path d="M78 104h36" stroke="#0F1720" stroke-width="8" stroke-linecap="round"/><path d="M78 128h26" stroke="#0F1720" stroke-width="8" stroke-linecap="round"/><path d="M128 72l20 12-20 12V72Z" fill="#0F1720"/><circle cx="56" cy="138" r="10" fill="#0F1720"/><path d="M70 152h58" stroke="#0F1720" stroke-width="8" stroke-linecap="round"/></svg>