<svg xmlns="http://www.w3.org/2000/svg" width="192" height="192" viewBox="0 0 192 192" fill="none"><rect width="192" height="192" rx="44" fill="#0D141B"/><circle cx="145" cy="45" r="28" fill="#34C759" opacity="0.22"/><circle cx="48" cy="146" r="34" fill="#34C759" opacity="0.16"/><rect x="34" y="32" width="104" height="128" rx="26" fill="#34C759"/><rect x="46" y="44" width="80" height="104" rx="18" fill="#F7FFF8"/><path d="M46 76h80" stroke="#0D141B" stroke-width="6" stroke-linecap="round" opacity="0.9"/><path d="M86 44v104" stroke="#0D141B" stroke-width="6" stroke-linecap="round" opacity="0.9"/><rect x="56" y="56" width="20" height="12" rx="6" fill="#34C759"/><rect x="96" y="56" width="20" height="12" rx="6" fill="#34C759"/><path d="M58 99c7-10 20-10 27 0" stroke="#0D141B" stroke-width="6" stroke-linecap="round"/><path d="M99 99c7-10 20-10 27 0" stroke="#0D141B" stroke-width="6" stroke-linecap="round"/><path d="M66 124h40" stroke="#0D141B" stroke-width="7" stroke-linecap="round"/><circle cx="126" cy="125" r="24" fill="#0D141B"/><circle cx="126" cy="125" r="15" fill="#F7FFF8"/><path d="M143 142l18 18" stroke="#0D141B" stroke-width="13" stroke-linecap="round"/><path d="M143 142l18 18" stroke="#F7FFF8" stroke-width="6" stroke-linecap="round"/><path d="M54 150h64" stroke="#0D141B" stroke-width="8" stroke-linecap="round" opacity="0.95"/></svg>